<!-- MY NAME -->
<svg width="676" height="117" viewBox="0 0 676 117" fill="none" xmlns="http://www.w3.org/2000/svg">
<path d="M37.912 114.008C31.288 114.008 25.336 112.856 20.056 110.552C14.872 108.152 10.792 104.888 7.81601 100.76C4.84001 96.536 3.30401 91.688 3.20801 86.216H17.176C17.656 90.92 19.576 94.904 22.936 98.168C26.392 101.336 31.384 102.92 37.912 102.92C44.152 102.92 49.048 101.384 52.6 98.312C56.248 95.144 58.072 91.112 58.072 86.216C58.072 82.376 57.016 79.256 54.904 76.856C52.792 74.456 50.152 72.632 46.984 71.384C43.816 70.136 39.544 68.792 34.168 67.352C27.544 65.624 22.216 63.896 18.184 62.168C14.248 60.44 10.84 57.752 7.96001 54.104C5.17601 50.36 3.78401 45.368 3.78401 39.128C3.78401 33.656 5.17601 28.808 7.96001 24.584C10.744 20.36 14.632 17.096 19.624 14.792C24.712 12.488 30.52 11.336 37.048 11.336C46.456 11.336 54.136 13.688 60.088 18.392C66.136 23.096 69.544 29.336 70.312 37.112H55.912C55.432 33.272 53.416 29.912 49.864 27.032C46.312 24.056 41.608 22.568 35.752 22.568C30.28 22.568 25.816 24.008 22.36 26.888C18.904 29.672 17.176 33.608 17.176 38.696C17.176 42.344 18.184 45.32 20.2 47.624C22.312 49.928 24.856 51.704 27.832 52.952C30.904 54.104 35.176 55.448 40.648 56.984C47.272 58.808 52.6 60.632 56.632 62.456C60.664 64.184 64.12 66.92 67 70.664C69.88 74.312 71.32 79.304 71.32 85.64C71.32 90.536 70.024 95.144 67.432 99.464C64.84 103.784 61 107.288 55.912 109.976C50.824 112.664 44.824 114.008 37.912 114.008Z" stroke="white" stroke-width="5"/>
<path d="M129.772 32.648C135.724 32.648 141.1 33.944 145.9 36.536C150.7 39.032 154.444 42.824 157.132 47.912C159.916 53 161.308 59.192 161.308 66.488V113H148.348V68.36C148.348 60.488 146.38 54.488 142.444 50.36C138.508 46.136 133.132 44.024 126.316 44.024C119.404 44.024 113.884 46.184 109.756 50.504C105.724 54.824 103.708 61.112 103.708 69.368V113H90.6036V6.43999H103.708V45.32C106.3 41.288 109.852 38.168 114.364 35.96C118.972 33.752 124.108 32.648 129.772 32.648Z" stroke="white" stroke-width="5"/>
<path d="M189.481 21.272C186.985 21.272 184.873 20.408 183.145 18.68C181.417 16.952 180.553 14.84 180.553 12.344C180.553 9.84799 181.417 7.73599 183.145 6.00799C184.873 4.27999 186.985 3.41599 189.481 3.41599C191.881 3.41599 193.897 4.27999 195.529 6.00799C197.257 7.73599 198.121 9.84799 198.121 12.344C198.121 14.84 197.257 16.952 195.529 18.68C193.897 20.408 191.881 21.272 189.481 21.272ZM195.817 34.088V113H182.713V34.088H195.817Z" stroke="white" stroke-width="5"/>
<path d="M247.527 100.904L272.007 34.088H285.975L255.014 113H239.751L208.79 34.088H222.902L247.527 100.904Z" stroke="white" stroke-width="5"/>
<path d="M404.364 42.008C404.364 50.36 401.484 57.32 395.724 62.888C390.06 68.36 381.372 71.096 369.66 71.096H350.364V113H337.26V12.632H369.66C380.988 12.632 389.58 15.368 395.436 20.84C401.388 26.312 404.364 33.368 404.364 42.008ZM369.66 60.296C376.956 60.296 382.332 58.712 385.788 55.544C389.244 52.376 390.972 47.864 390.972 42.008C390.972 29.624 383.868 23.432 369.66 23.432H350.364V60.296H369.66Z" stroke="white" stroke-width="5"/>
<path d="M415.754 73.256C415.754 65.192 417.387 58.136 420.651 52.088C423.915 45.944 428.379 41.192 434.043 37.832C439.803 34.472 446.186 32.792 453.194 32.792C460.106 32.792 466.107 34.28 471.195 37.256C476.283 40.232 480.074 43.976 482.57 48.488V34.088H495.819V113H482.57V98.312C479.978 102.92 476.09 106.76 470.906 109.832C465.818 112.808 459.867 114.296 453.051 114.296C446.043 114.296 439.707 112.568 434.043 109.112C428.379 105.656 423.915 100.808 420.651 94.568C417.387 88.328 415.754 81.224 415.754 73.256ZM482.57 73.4C482.57 67.448 481.37 62.264 478.97 57.848C476.57 53.432 473.306 50.072 469.178 47.768C465.146 45.368 460.682 44.168 455.786 44.168C450.89 44.168 446.427 45.32 442.395 47.624C438.362 49.928 435.146 53.288 432.746 57.704C430.346 62.12 429.147 67.304 429.147 73.256C429.147 79.304 430.346 84.584 432.746 89.096C435.146 93.512 438.362 96.92 442.395 99.32C446.427 101.624 450.89 102.776 455.786 102.776C460.682 102.776 465.146 101.624 469.178 99.32C473.306 96.92 476.57 93.512 478.97 89.096C481.37 84.584 482.57 79.352 482.57 73.4Z" stroke="white" stroke-width="5"/>
<path d="M533.947 44.888V91.4C533.947 95.24 534.763 97.976 536.395 99.608C538.027 101.144 540.859 101.912 544.891 101.912H554.539V113H542.731C535.435 113 529.963 111.32 526.315 107.96C522.667 104.6 520.843 99.08 520.843 91.4V44.888H510.619V34.088H520.843V14.216H533.947V34.088H554.539V44.888H533.947Z" stroke="white" stroke-width="5"/>
<path d="M642.416 70.52C642.416 73.016 642.272 75.656 641.984 78.44H578.912C579.392 86.216 582.032 92.312 586.832 96.728C591.728 101.048 597.632 103.208 604.544 103.208C610.208 103.208 614.912 101.912 618.656 99.32C622.496 96.632 625.184 93.08 626.72 88.664H640.832C638.72 96.248 634.496 102.44 628.16 107.24C621.824 111.944 613.952 114.296 604.544 114.296C597.056 114.296 590.336 112.616 584.384 109.256C578.528 105.896 573.92 101.144 570.56 95C567.2 88.76 565.52 81.56 565.52 73.4C565.52 65.24 567.152 58.088 570.416 51.944C573.68 45.8 578.24 41.096 584.096 37.832C590.048 34.472 596.864 32.792 604.544 32.792C612.032 32.792 618.656 34.424 624.416 37.688C630.176 40.952 634.592 45.464 637.664 51.224C640.832 56.888 642.416 63.32 642.416 70.52ZM628.88 67.784C628.88 62.792 627.776 58.52 625.568 54.968C623.36 51.32 620.336 48.584 616.496 46.76C612.752 44.84 608.576 43.88 603.968 43.88C597.344 43.88 591.68 45.992 586.976 50.216C582.368 54.44 579.728 60.296 579.056 67.784H628.88Z" stroke="white" stroke-width="5"/>
<path d="M672.817 6.43999V113H659.713V6.43999H672.817Z" stroke="white" stroke-width="5"/>
</svg>


